<mxfile host="65bd71144e">
    <diagram id="j3ZVOEJlRGiyQggs1mI1" name="Page-1">
        <mxGraphModel dx="840" dy="1951" grid="1" gridSize="10" guides="1" tooltips="1" connect="1" arrows="1" fold="1" page="1" pageScale="1" pageWidth="850" pageHeight="1100" math="0" shadow="0">
            <root>
                <mxCell id="0"/>
                <mxCell id="1" parent="0"/>
                <mxCell id="24" style="edgeStyle=none;html=1;strokeColor=default;strokeWidth=2;fontSize=16;endArrow=classic;endFill=1;entryX=0;entryY=0.5;entryDx=0;entryDy=0;" edge="1" parent="1" source="2">
                    <mxGeometry relative="1" as="geometry">
                        <mxPoint x="640" y="455" as="targetPoint"/>
                    </mxGeometry>
                </mxCell>
                <mxCell id="36" style="edgeStyle=none;html=1;strokeColor=default;strokeWidth=2;fontSize=16;endArrow=classic;endFill=1;exitX=0.25;exitY=1;exitDx=0;exitDy=0;" edge="1" parent="1" source="2">
                    <mxGeometry relative="1" as="geometry">
                        <mxPoint x="433" y="660" as="targetPoint"/>
                    </mxGeometry>
                </mxCell>
                <mxCell id="2" value="&lt;b&gt;&lt;font style=&quot;font-size: 16px;&quot;&gt;Hybrid Web/App Server(s)&lt;/font&gt;&lt;/b&gt;" style="whiteSpace=wrap;html=1;fillColor=#1ba1e2;fontColor=#ffffff;strokeColor=#006EAF;" vertex="1" parent="1">
                    <mxGeometry x="400" y="490" width="130" height="80" as="geometry"/>
                </mxCell>
                <mxCell id="3" value="" style="edgeStyle=none;orthogonalLoop=1;jettySize=auto;html=1;fontSize=16;strokeColor=default;endArrow=none;endFill=0;dashed=1;dashPattern=8 8;" edge="1" parent="1">
                    <mxGeometry width="80" relative="1" as="geometry">
                        <mxPoint x="540" y="580" as="sourcePoint"/>
                        <mxPoint x="540" y="480" as="targetPoint"/>
                        <Array as="points"/>
                    </mxGeometry>
                </mxCell>
                <mxCell id="5" value="" style="edgeStyle=none;orthogonalLoop=1;jettySize=auto;html=1;fontSize=16;strokeColor=default;endArrow=none;endFill=0;dashed=1;dashPattern=8 8;" edge="1" parent="1">
                    <mxGeometry width="80" relative="1" as="geometry">
                        <mxPoint x="390" y="580" as="sourcePoint"/>
                        <mxPoint x="390" y="480" as="targetPoint"/>
                        <Array as="points"/>
                    </mxGeometry>
                </mxCell>
                <mxCell id="6" value="" style="edgeStyle=none;orthogonalLoop=1;jettySize=auto;html=1;fontSize=16;strokeColor=default;endArrow=none;endFill=0;dashed=1;dashPattern=8 8;" edge="1" parent="1">
                    <mxGeometry width="80" relative="1" as="geometry">
                        <mxPoint x="530" y="480" as="sourcePoint"/>
                        <mxPoint x="390" y="480" as="targetPoint"/>
                        <Array as="points">
                            <mxPoint x="470" y="480"/>
                        </Array>
                    </mxGeometry>
                </mxCell>
                <mxCell id="7" value="" style="edgeStyle=none;orthogonalLoop=1;jettySize=auto;html=1;fontSize=16;strokeColor=default;endArrow=none;endFill=0;dashed=1;dashPattern=8 8;" edge="1" parent="1">
                    <mxGeometry width="80" relative="1" as="geometry">
                        <mxPoint x="540" y="580" as="sourcePoint"/>
                        <mxPoint x="390" y="580" as="targetPoint"/>
                        <Array as="points"/>
                    </mxGeometry>
                </mxCell>
                <mxCell id="10" style="edgeStyle=none;html=1;entryX=0;entryY=0.5;entryDx=0;entryDy=0;strokeColor=default;fontSize=16;endArrow=classic;endFill=1;strokeWidth=2;" edge="1" parent="1">
                    <mxGeometry relative="1" as="geometry">
                        <mxPoint x="180" y="379.9999999999999" as="sourcePoint"/>
                        <mxPoint x="240" y="380" as="targetPoint"/>
                    </mxGeometry>
                </mxCell>
                <mxCell id="12" value="" style="edgeStyle=none;html=1;strokeColor=default;strokeWidth=2;fontSize=16;endArrow=classic;endFill=1;" edge="1" parent="1">
                    <mxGeometry relative="1" as="geometry">
                        <mxPoint x="360" y="380" as="sourcePoint"/>
                        <mxPoint x="419.99999999999704" y="380" as="targetPoint"/>
                    </mxGeometry>
                </mxCell>
                <mxCell id="13" style="edgeStyle=none;html=1;strokeColor=default;strokeWidth=2;fontSize=16;endArrow=classic;endFill=1;" edge="1" parent="1">
                    <mxGeometry relative="1" as="geometry">
                        <mxPoint x="180" y="480" as="targetPoint"/>
                        <mxPoint x="422.2803866566844" y="393.31280470940555" as="sourcePoint"/>
                    </mxGeometry>
                </mxCell>
                <mxCell id="16" style="edgeStyle=none;html=1;strokeColor=default;strokeWidth=2;fontSize=16;endArrow=classic;endFill=1;exitX=1;exitY=0.25;exitDx=0;exitDy=0;entryX=-0.005;entryY=0.148;entryDx=0;entryDy=0;entryPerimeter=0;" edge="1" parent="1" target="2">
                    <mxGeometry relative="1" as="geometry">
                        <mxPoint x="370" y="503" as="targetPoint"/>
                        <mxPoint x="170" y="502.5" as="sourcePoint"/>
                        <Array as="points"/>
                    </mxGeometry>
                </mxCell>
                <mxCell id="17" style="edgeStyle=none;html=1;strokeColor=default;strokeWidth=2;fontSize=16;endArrow=classic;endFill=1;entryX=1;entryY=0.75;entryDx=0;entryDy=0;" edge="1" parent="1">
                    <mxGeometry relative="1" as="geometry">
                        <mxPoint x="170" y="557.5" as="targetPoint"/>
                        <mxPoint x="400" y="558" as="sourcePoint"/>
                    </mxGeometry>
                </mxCell>
                <mxCell id="18" value="&lt;b&gt;&lt;font style=&quot;font-size: 26px;&quot;&gt;API (with flask)&lt;/font&gt;&lt;/b&gt;" style="text;strokeColor=none;align=center;fillColor=none;html=1;verticalAlign=middle;whiteSpace=wrap;rounded=0;fontSize=16;" vertex="1" parent="1">
                    <mxGeometry x="200" y="516" width="190" height="30" as="geometry"/>
                </mxCell>
                <mxCell id="19" value="&lt;font style=&quot;font-size: 16px;&quot;&gt;Request&lt;/font&gt;" style="text;strokeColor=none;align=center;fillColor=none;html=1;verticalAlign=middle;whiteSpace=wrap;rounded=0;fontSize=26;" vertex="1" parent="1">
                    <mxGeometry x="260" y="475" width="60" height="30" as="geometry"/>
                </mxCell>
                <mxCell id="21" value="&lt;font style=&quot;font-size: 16px;&quot;&gt;Response&lt;/font&gt;" style="text;strokeColor=none;align=center;fillColor=none;html=1;verticalAlign=middle;whiteSpace=wrap;rounded=0;fontSize=26;" vertex="1" parent="1">
                    <mxGeometry x="260" y="555" width="60" height="30" as="geometry"/>
                </mxCell>
                <mxCell id="26" style="edgeStyle=none;html=1;strokeColor=default;strokeWidth=2;fontSize=16;endArrow=classic;endFill=1;" edge="1" parent="1">
                    <mxGeometry relative="1" as="geometry">
                        <mxPoint x="540" y="530" as="targetPoint"/>
                        <mxPoint x="640" y="484.5454545454543" as="sourcePoint"/>
                    </mxGeometry>
                </mxCell>
                <mxCell id="30" style="edgeStyle=none;html=1;strokeColor=default;strokeWidth=2;fontSize=16;endArrow=classic;endFill=1;" edge="1" parent="1">
                    <mxGeometry relative="1" as="geometry">
                        <mxPoint x="530" y="570" as="targetPoint"/>
                        <mxPoint x="620" y="600" as="sourcePoint"/>
                    </mxGeometry>
                </mxCell>
                <mxCell id="37" style="edgeStyle=none;html=1;strokeColor=default;strokeWidth=2;fontSize=16;endArrow=classic;endFill=1;" edge="1" parent="1">
                    <mxGeometry relative="1" as="geometry">
                        <mxPoint x="490" y="580" as="targetPoint"/>
                        <mxPoint x="490" y="660" as="sourcePoint"/>
                    </mxGeometry>
                </mxCell>
                <mxCell id="41" style="edgeStyle=none;html=1;strokeColor=default;strokeWidth=2;fontSize=16;endArrow=classic;endFill=1;" edge="1" parent="1">
                    <mxGeometry relative="1" as="geometry">
                        <mxPoint x="170" y="710.8300000000002" as="targetPoint"/>
                        <mxPoint x="400" y="710.8299999999999" as="sourcePoint"/>
                    </mxGeometry>
                </mxCell>
                <mxCell id="32" value="" style="edgeStyle=none;orthogonalLoop=1;jettySize=auto;html=1;fontSize=16;strokeColor=default;endArrow=none;endFill=0;dashed=1;dashPattern=8 8;" edge="1" parent="1">
                    <mxGeometry width="80" relative="1" as="geometry">
                        <mxPoint x="539.17" y="760" as="sourcePoint"/>
                        <mxPoint x="539.17" y="660" as="targetPoint"/>
                        <Array as="points"/>
                    </mxGeometry>
                </mxCell>
                <mxCell id="33" value="" style="edgeStyle=none;orthogonalLoop=1;jettySize=auto;html=1;fontSize=16;strokeColor=default;endArrow=none;endFill=0;dashed=1;dashPattern=8 8;" edge="1" parent="1">
                    <mxGeometry width="80" relative="1" as="geometry">
                        <mxPoint x="389.17" y="760" as="sourcePoint"/>
                        <mxPoint x="389.17" y="660" as="targetPoint"/>
                        <Array as="points"/>
                    </mxGeometry>
                </mxCell>
                <mxCell id="34" value="" style="edgeStyle=none;orthogonalLoop=1;jettySize=auto;html=1;fontSize=16;strokeColor=default;endArrow=none;endFill=0;dashed=1;dashPattern=8 8;" edge="1" parent="1">
                    <mxGeometry width="80" relative="1" as="geometry">
                        <mxPoint x="529.17" y="660" as="sourcePoint"/>
                        <mxPoint x="389.17" y="660" as="targetPoint"/>
                        <Array as="points">
                            <mxPoint x="469.17" y="660"/>
                        </Array>
                    </mxGeometry>
                </mxCell>
                <mxCell id="35" value="" style="edgeStyle=none;orthogonalLoop=1;jettySize=auto;html=1;fontSize=16;strokeColor=default;endArrow=none;endFill=0;dashed=1;dashPattern=8 8;" edge="1" parent="1">
                    <mxGeometry width="80" relative="1" as="geometry">
                        <mxPoint x="539.17" y="760" as="sourcePoint"/>
                        <mxPoint x="389.17" y="760" as="targetPoint"/>
                        <Array as="points"/>
                    </mxGeometry>
                </mxCell>
                <mxCell id="42" style="edgeStyle=none;html=1;strokeColor=default;strokeWidth=2;fontSize=16;endArrow=classic;endFill=1;" edge="1" parent="1">
                    <mxGeometry relative="1" as="geometry">
                        <mxPoint x="110" y="590" as="targetPoint"/>
                        <mxPoint x="110" y="671.6600000000001" as="sourcePoint"/>
                    </mxGeometry>
                </mxCell>
                <mxCell id="43" value="" style="whiteSpace=wrap;html=1;fontSize=16;align=left;rounded=1;fillColor=#e1d5e7;strokeColor=#9673a6;" vertex="1" parent="1">
                    <mxGeometry x="40" y="-180" width="740" height="420" as="geometry"/>
                </mxCell>
                <mxCell id="44" value="&lt;b&gt;&lt;font color=&quot;#000000&quot;&gt;API CALLS&lt;/font&gt;&lt;/b&gt;" style="text;strokeColor=none;align=center;fillColor=none;html=1;verticalAlign=middle;whiteSpace=wrap;rounded=0;fontSize=16;" vertex="1" parent="1">
                    <mxGeometry x="51" y="-160" width="79.11" height="69.22" as="geometry"/>
                </mxCell>
                <mxCell id="52" value="" style="edgeStyle=none;orthogonalLoop=1;jettySize=auto;html=1;strokeWidth=2;fontSize=16;endArrow=none;endFill=0;strokeColor=#000000;entryX=0.149;entryY=0.919;entryDx=0;entryDy=0;entryPerimeter=0;" edge="1" parent="1">
                    <mxGeometry width="80" relative="1" as="geometry">
                        <mxPoint x="151" y="-160" as="sourcePoint"/>
                        <mxPoint x="150.37" y="-16.184999999999945" as="targetPoint"/>
                        <Array as="points"/>
                    </mxGeometry>
                </mxCell>
                <mxCell id="54" value="" style="shape=image;verticalLabelPosition=bottom;labelBackgroundColor=default;verticalAlign=top;aspect=fixed;imageAspect=0;image=https://static-00.iconduck.com/assets.00/react-icon-512x512-u6e60ayf.png;fontColor=#000000;" vertex="1" parent="1">
                    <mxGeometry x="60" y="473" width="112" height="112" as="geometry"/>
                </mxCell>
                <mxCell id="55" value="Front End React Implentation&lt;br&gt;" style="text;strokeColor=none;align=center;fillColor=none;html=1;verticalAlign=middle;whiteSpace=wrap;rounded=0;fontSize=16;fontColor=#000000;" vertex="1" parent="1">
                    <mxGeometry x="86" y="505" width="60" height="30" as="geometry"/>
                </mxCell>
                <mxCell id="59" value="" style="shape=image;verticalLabelPosition=bottom;labelBackgroundColor=default;verticalAlign=top;aspect=fixed;imageAspect=0;image=data:image/png,iVBORw0KGgoAAAANSUhEUgAAAMcAAACUCAMAAAAQwc2tAAAAZlBMVEX///8AAAABAQH8/Pz4+Pj19fXx8fHT09Ph4eHr6+vu7u7Kysrn5+ekpKQrKyvY2NgkJCQwMDCwsLB8fHyGhoYLCwsbGxsVFRVwcHCVlZXAwMBVVVVKSkpbW1s3NzeNjY0+Pj5mZmYfi3YJAAARGUlEQVR4nN1dCXecvM5Gw44xBrPZxmz//09ey4aBSSff23vf04z76bRNOiE50ljLo8VKEPwzSdjNvxxo+BsP+0tk2VCAcIXs06z8K+LAy6zMCwnq06z8KyINF9MuxPaXyxGJfQJL7NOs/DtiugF4PGDKP83JvySFYjxARp9m5N9SNMD/CzmCyJwI1H+337VUoZ1XlKREUUnJ33oyzAjRwEXrpxn634htAFob/imnE5rK8mmO/idSRoS+NxbSG62aUQ79aZb+BypkhVaOf/umtpEE5KeZ+u+pFL0NH0hoGvbDVH6arf+WyvkphZPDkeZ/GYgnNzFMCGFZV5+irOovAiqlfpEjNS9l7fI8l6ZN/5JY8jwQy7czcKZvr7XJhzn8PXI8W0USnagsNmnXu9H8HWmJlcMIITnJTXK7o01M0MPhu8zX2k+z+FtEahM4Gk67tevWtYO2xMqDoUX3VhBoOup/hhVSDIDDmRKawD5J2owtZ1neuhMBGHXne0Ah/Wkez/AxtqSITfiIt5sLWPy2EvnirQzN9MhCwoANLxFSeOqAY7Lqpy2bU2iWSVo7yKjlWGXqJUYC8DjyL8qn+vRIqDXT3vGUKUoJi7nzUKrKJrhjFTwTSjyL8eV0yGD+7C3lvNMHry2tbMjgNVjj75dpFqLtkNq27TjzScE4PI2iX6kYr3ABzQgNC0L0VpNYKd9FkcTPb6Swrdwb7xVKPIhqNekfplB3Q7DSbbIzmqZYHgbZBtyoYXsg4NR4Mdgl8cRSjA33ksh9cSnUFzEaYy3ZcQZGv5Yo62jmOFcuj98E+SD3F4WMrruufxXBCCGz5PZuqxEeGX+Gj/VItaASn+D7K+VtP8IXv4pUS6P7ZBVaT+oQJkrL4OlwyRkcQddj+jH2D0IjhpsY9vOhmngRYGycuaw3Wbz5xlSf3whrEIkPB/ms+pLMDoueV6fwueLfJhwx0YsQs3YmUrOi+6iRpNVLDji1LYY3A6mytAjS76qjSUY6mPGrhepmm/2qtY2/efoHiG1wGcQDdgfKE5ONz7X4RuULwjvjoptTkUq+7uZQm/1zNeFCHNi22iXHNJDaqBanLFDzzH/9hjjj8kjZ59vbXxLOOftcGOG9DRmtYmUUWFwyI2bK2kmEZfliG5HhdW33ySrR3hl89SGe31AukHVxRDmbRFljVRjcjmdKLLqvYp70Mjj1q2aSlKlPKW6KbBntIbteY4xq4BpqYUQG6MwnMd3qse/7M6JoqZI4tthw2j/L+52IYY3aBMr2/fmA4fDAfesWlO0LUJ9fcBSdP8HxW8J8vM6D/KpFp+tOz68W6w33bts40vguB5m8geyhcVF7YdD3WV8LwzDJUjvRwPgDLpc8ZBkVk7iXStjmDWBHvZqLwPje2rlYJjESoBuVzZkgLnqpG4qeICZ3z8oWf1qIbIChDLTxU5s1EGUhhpICnes4WzC7KaLIl0idkChgjT+FrKJFd2Xh3iBUYezaMD4OLrbXqwPlbxAWr/KA1H4kHZZUD0Owm/dc9lBNenScO9vuGwwu4xtuEwEJUaNHVSw8EEmNCj0h+GsKUtN3gJ0sgqx0fANbPkYUDeFVhCNa0CBj3wBYDlySvfdJjmxyidBNjE1vi4Gv1jXlbyWhkOnQswZo98tJ8Iwxk11Yb5R8IwedC88GBFR1S2jrBcs+M7YG9AGf3gU7o4yq7PySI756gqAJEQ8sAaU5r45Jssx8YPS1AKp6nQTx2H2C329J2LTDHofOMK+CSUqsKR44UMQBm16db6KMcPHeelJ+c6RsyccK0usJ9swmSibnG1xaKycVlG/MJOrEB/PxXykyfM/tAQmXTk+2HViNNjEJsNY2ti9qdZxCKIVfzVvd79AfMXzm2s2XwDNvLaCn98fD1B1DKGd/AC8She2G0K0Yg95bFx3iIgy6+RURnnJof4AiUn4i9LPYflV08oy2NM3Zi5lHrkgdrdvHS6Gv9Ez6NF2tdTwdKh+MD27b1xZHmFr+43bxCPAizXD0ojQvKVq9s4eIJ7EwSDFPJX9Bi7nVp3gePAK8SBSTDVfImqYRRObe/rDb08zEk50E+atnClGxksUroGgoQ3S7YuTLaHXV11TUDTRjfPsFoNvGQX46Zm8oRnCYG6e1EYSNtX0xC7LWYKg5Dgoi32XikQL65uUPUrQbQeRiwvlmPZbFfwRCCpJrtOX3+KPcvALugTMQV2hzhTchQGLn3Ca134KofO68Aia2PHoNlFhYsjV9hqmiKgN+K7eF+LkVLMbpOeHbHACOK00OkCzG8fYiYzswCUB4zG/WXKSRcce2hBqSbJz8qWBZsmidCod5Ub8y1H4dchs3yJXdxioJsgHDRxeJFHwL6Maid73nZxN5sXGOP84oHiqi3Dsf5iHeZcOvlh2ZwLOAHigQaWV8rqtbWe7kPKbGHmI8Cs6lfkZ0AytlHkQpiYh3c1hsgYzT80CwSWjS3SHNBSFoHaQlujmflU7vzMmwxbNAiOU4GkyBOHBvpYJIQ80UqJwbXKh245DPcX1u/DL6KeMAjHf+JNdvyPjYPM3T00KMVC3UpXqgiiVbxzfVnHiFHV0GAsOwv6s2fpJUbcB6Wm42jjQzNCzexkQ1KeIPxUktKxgdDIl7qHFKoxOhHDxzvEFpoEmR5qsb393HPQvSLiAm44sk6CQS6I+15Trko+3CmUeof7cMV5M9haQ7x3ewb0NSrlmB47ttxAcTHTv37kedHZGTRcj9G6/mJqRHRJ95+iDSYK/02ArbG6GJgLk7mc5wDCgwWQrbVq9KWAGCPkwn5OF4U1pvBTMuazb5SN/UDSu7LD+VKDwRVyy0bw4LE4/JzoWjoe/TAHvAplFOsEGFw3zxV+QbmkNpwTs5SAVVWohr4hLCIJuNeSvjy94CkDArpXfIJMAuocA48iy+0wNAfutb84JUftWqkYwIGyPLJccU2E6gie7fGnMyDT/I4e9ROBrXm4iri4CTDmtbAxffww/xrpv7YWrxAhTtrwPZlTkNYyDlSL8bweC+1RoMlTDzjk1POcZV2llwXc7ftsqLevtJFn+PporLlZ4XJPDqdqZagDqV319HnzxcrJHCms2tfs4BYFknYZTGHERhcJXl+Is9UL+6hJaSZUvpcBoIui98NQxNurjG6Gbxv+UrpMqtW/OMFNBoukWQs87G9DdrJ1gSQONfKCy3KZeP8zz6BSbihts52IIc41kY3CVa92AH/0JhiOtkzn46NNyAxMVZhVpUSgtlE8VbsYf0xnZmz6pxASqQjvfTzh9uPLSxkuAdMIoTvrSsr+QpnJJAeDUvc5AEnt5urbkPM/ajZrw4hRXHWGyXICQsOh8v3TJdG41/kQP7hju11V5bOFUMbvXQ3Byfb30ppBXW/DiHer48V69dWIEKpmi+nQBenILWt7KJyVY15MdqnJrwL/ciTWzPYuDtLR+httPgn+s1B6LdxU4D2Nvp0KU5i9XuJJENlk66C6dgV077dyDhBjQ+byHA2Bi/BV3KEbmnzzUHsD7liLLU1u28Iw5NmblmyAMm3tZDa6d3DcfcXWjrm/kydEUDOWsP0WKwgQjT5RCk4bPJruzryg079DNVt7wqzgJF1Ki9GRJ/EoGBBwa+D+1g70fixQp8nQm7Uar/5ZpOWRrY61vPM8BkVbNwhrFte2smvZUj7Kwcj1+vnxtE7GNpMWAjtLHqYdTDMV5meVTPsaDmDRLhHo27n8Sxtoi+qT/rpJbxbD1yRajFa4E6wcZP652JINjIEVGd02VqtkyqJ6aHcVhuZsI7A+o9dL5kBOOAnqO9BlClWJou2vvmg/uYjGsw+Ad8JSaDyVU7gdbeBYu6/glRHth+OwmvTLHNP3yCgbAMyeMSxAR1IwmmvVurQds1WfttvixCs9q86+uoGuYyPyG8kwTHfjROoaSUulu1N1/LIqwG796lIh08OA7QPG6SzDzGoL7QslTNaIxlvQJ77jTLo0uFjpIF9lDVr0P89a5QkH6WeSZneNnSW/A84KN/cT2DkebPVMpEw463I1QzDKhTuk0Llt61KOkoov7eO+9LYSrlVc3qhd7GeTB2nmYYWur5C85SaC77NTTrC4U7SKyenOWTZjSBJDWpydBlqbXz5g58g6RFaLJ7NwUU5EuvYrE1hyAVV7zTix0sHQxqGZfK+IL8MhGGADLsYPLN+5JhLoP8MHZwKUYm8c78ytumooq2j5FelyMV9kmMTc2eQcaQAjbI6THPdJRFQiX3hYdEaJkGSoqdPtlGieIVzrUC3lDSImY61vjBKM5dZAWWfiLezh1VXC4TvTkuBGGgPbORUuNeEv68jzB1PE1TJTdch8Picod6Mxil328QkTTAxeaZ10rHJQliW6RykozbtlUOKG7Tvpw3LeqrnRNKaKe3udYnicMUBRFdXDII0+rQ7tzj4PsKF5AXl+NyU8CeTfcaP4oMTceBLIvN2efNzZXya/R3v/jGrrsGz8ZihfWj9Gkj5wfL/GaXUzTubthl7Ws/YfdE+XQkoQCtwkAOd/CLxa0KuR+MgrWpakXzoknUCFgNJv36IONfyXjfUcYBHe9XWMcRBO8Wu8kEF+IorAXfwG5mAmWNpRWPulWFSWdbExUbuGDjzivNMyJ15zJ1d/H7JkhIWpsEC1+2lRlK1h66IErV/vRPuqtg3CU2EXrcipBzsbxmiHhxBDVv6fxRrli697qgt4qJnSE3dmBUbJglKcssy17z2ijjCPH178wKmGT5B+4jhupQGvXVbx3X9fpq01MrJX2tmYRxqdoHbP8UFdlcwbr8RA6WAU5nHNs7YezcittdjGdIPzpWv9Z+Srb8005Su6jjh4rd0YweNskt0zZPRys2iZXem+t03r6lqfXQtPymcmpyFhdO/yT7FyUdTvHWZwTva9dg72WyukUb4yz0+7WQqnH7qVj5xnnF8sAKP5XaR3xxgBEabbg+MkW0DddgGDhbvxmbIcdCjomSr94rlm547ScXahG34R22GeAWTKxsw9ZY8Bi/vRrG2qHerEPYqbqLEsvFOsGfreFlrVMrw5HQL+svYdBiXux+z6470qjs3oBTbrxuxFJL99wVG+FNWPyRP5wMJwfC5Qp/h0Att+tQxmWxTRPD6WJTYCLDkK9dJ91+oISlShHhjGqbhcTd9vzI/qsfT7yY4aSjNQ3IAkMxXQdyqJr1wrjcIe0KtdV4eMO2X5MDz4o9hhxdnxZnH4hvB6j+eI0Vi9hJtzF3gfLxhtD3MC2Phd0NgsiNHjyWEt5R32hdjeOoV+fx+AC19dRJmTHyZwoXcTsCZVtbhrJ6fNlHcz8cWGBbtQwxiA41dMXhAQolmtrdFR8aPeulaerxNv4hutZI8XiR88/oXTrDQvhMs1xOGEb6XwWxfcTHrhGS5CZgZjaOZuUxw8HsdMS5USRiirbzPI1ga69IJhEb9TzvhiaTk41/aPbDIEChaKdYxkWlZX/zw9d5GFpDkpjwYc1K4xpMwdMyCpMMf/PLuLI0JQSlw+VzCW9MxuJm08EgnoamjJknLNr8U4lMTo0knFJVxAqnz2C8iWL0Ca+4Yv1BAieN5rIdJuYqEKOQtNvcdESNClbpue1WiVPoly/HJwc9Ne7HAvy5WRxE5ZPEcmJEuOgbSYXrU+HQbAdbdSAY7MK1mYRWbrLupkaeru3VAi539+VU7Wd/9MpMSXajKHbZV06oMOpPjj3dYK9OP47ND9DrvYYKynZq10z+Yk3/F7kftv/hCmXCDEjc7BBpVKp9UnFYlOkK8OqSYZlx+c78GBouh/fO+lshto6zPw9awoh1w1jZ5Qch28etU1kYi1dWMcofXA3wz2I8tU5LkkfhK2D7D7H9/ezzjf64AAAAAElFTkSuQmCC;" vertex="1" parent="1">
                    <mxGeometry x="251.01" y="590" width="77.99" height="58" as="geometry"/>
                </mxCell>
                <mxCell id="60" value="" style="shape=image;verticalLabelPosition=bottom;labelBackgroundColor=default;verticalAlign=top;aspect=fixed;imageAspect=0;image=https://cdn.worldvectorlogo.com/logos/github-icon-2.svg;" vertex="1" parent="1">
                    <mxGeometry x="642.11" y="400" width="115.78" height="116" as="geometry"/>
                </mxCell>
                <mxCell id="62" value="&lt;b&gt;Github Repository&lt;/b&gt;" style="text;strokeColor=none;align=center;fillColor=none;html=1;verticalAlign=middle;whiteSpace=wrap;rounded=0;labelBackgroundColor=none;fontSize=16;fontColor=#000000;" vertex="1" parent="1">
                    <mxGeometry x="670" y="443" width="60" height="30" as="geometry"/>
                </mxCell>
                <mxCell id="64" value="" style="edgeStyle=none;html=1;entryX=0;entryY=0.25;entryDx=0;entryDy=0;strokeColor=default;strokeWidth=2;fontSize=16;endArrow=classic;endFill=1;" edge="1" parent="1" source="2" target="63">
                    <mxGeometry relative="1" as="geometry">
                        <mxPoint x="530" y="545.7258064516129" as="sourcePoint"/>
                        <mxPoint x="620" y="567.5" as="targetPoint"/>
                    </mxGeometry>
                </mxCell>
                <mxCell id="63" value="" style="shape=image;verticalLabelPosition=bottom;labelBackgroundColor=default;verticalAlign=top;aspect=fixed;imageAspect=0;image=data:image/jpeg,/9j/4AAQSkZJRgABAQAAAQABAAD/2wCEAAkGBxAHDxMTBxISExITFBATEhEXFhASGBgYGR0XGRcTFhMaHSogGBolGxcXIzEhJSkrLjA6Fx8zODU4NygtLisBCgoKDg0OGxAQGi0dICUtKy0tLS0rLS0tLzAtLSstLS0tLS0rLS0tLS0tKy0tLS0tLSstLS0tLS0tLS0tLS0rLf/AABEIAOEA4QMBEQACEQEDEQH/xAAcAAEAAgMBAQEAAAAAAAAAAAAABgcCBQgEAQP/xABIEAABAgQBBgkJBgQEBwAAAAABAAIDBBESBQYhMUFRcQcTFiJhgZGS0hQVFzJCVHKjsSNSU2KCoSRDg8EzNHOiRJPCw9Hh8P/EABoBAQACAwEAAAAAAAAAAAAAAAADBAECBgX/xAAvEQEAAgECBAUDBAIDAQAAAAAAAQIRAwQSFDFSFSFhodEiQZETMlFxBYEzQrHh/9oADAMBAAIRAxEAPwC8UBAQEBAQEBAQEBAQEBAQEBAQEBAQEEWyh4QMOwBxZMxeMiitYMIcY4HY4+q09DiCpK6VrdEd9Wlesox6aZS7/KzFu2sKvdup+6k5e38ouaol2TGWsjlNzcOiUi0qYDxZEproNDqay0miivp2r1S01K36JEtEggICAgICDVYjlJJ4aS2cjsa4aWir3De1oJCn09tq6kZrVX1N1o6fla0PDy5w33j5Ux4FLyG47fePlF4jtu72n4OXOG+8fKmPAnIbjt94+TxHbd3tPwcucN94+VMeBOQ3Hb7x8niO27vafg5c4b7x8qY8CchuO33j5PEdt3e0/By5w33j5Ux4E5DcdvvHyeI7bu9p+DlzhvvHypjwJyG47fePk8R23d7T8HLnDfePlTHgTkNx2+8fJ4jtu72n4OXOG+8fKmPAnIbjt94+TxHbd3tPwcucN94+VMeBOQ3Hb7x8niO27vafg5c4b7x8qY8CchuO33j5PEdt3e0/By5w33j5Ux4E5DcdvvHyeI7bu9p+DlzhvvHypjwJyG47fePk8R23d7T8HLnDfePlTHgTkNx2+8fJ4jtu72n4OXOG+8fKmPAnIbjt94+TxHbd3tPwcucN94+VMeBOQ3Hb7x8niO27vafg5c4b7x8qY8CchuO33j5PEdt3e0/D4/LzDGAl8xQDOTxcx4FidjrxGZr7x8sx/kNvM4i3tPwqvLvhNjY0XQcDLoMtnBeKtiRRtJ0sYfujOdem0Z09GI85aa24mfKqvAKaFOqiMM4MV0BwdAc5r2kOa5pLXAjQQ4ZwelOrMTMecOgODDLXlPBMOfI8qggX6BxjNAigajXM4DNUg5qgClq6fDPl0eloavHHn1ThQpxAQEBBXuX2VMRsTyTCSQ7MIr2+sSdEJhGjSKkZ89Nq9bY7Ss1/V1P9fLx/8hvLRb9LT/38NLh+SALQcQeQT7DKZuguINTuVu+78/ph59Nt5fVL28kpbbF7zfCo+av6JOWockpbbF7zfCnNX9DlqHJKW2xe83wpzV/Q5ahySltsXvN8Kc1f0OWockpbbF7zfCnNX9DlqHJKW2xe83wpzV/Q5ahySltsXvN8Kc1f0OWockpbbF7zfCnNX9DlqHJKW2xe83wpzV/Q5ahySltsXvN8Kc1f0OWockpbbF7zfCnNX9DlqHJKW2xe83wpzV/Q5ahySltsXvN8Kc1f0OWockpbbF7zfCnNX9DlqHJKW2xe83wpzV/Q5ajGLkvKQWl0V8RrWguc4vaAAM5JNuYJzV/Q5aiq8ocRhzcUtw68QGmjbjznU9s5hQbB/dRamtbU6pqaNdPo1KiSCDKGwxXBsIFznEBrQCSScwAA0knUjMRllHh8S60kEjTQgiuwOGY7xm2bUhmYw2uR+MnAJ+BHBo1rwIvTDdzXg7eaSR0gLTUrxVmG+jfhvEuol571RAQEHwmmlBTOS38dNvjR87qPifqec5/dy6TcfRpxWP6/DltGePUm8/3+UyuVFcLkC5AuQLkC5AuQLkC5AuQLkC5AuQLkC5AuQVpwjZTeVOMrIu+zYftnD2nD+XuadPTuz6y3iMIIsAgyYwxCGwwXOcQGtAJJJzAADSSdSMxEzOISLFJYZLM4jMZ6I3+IcCCJdjh/l2EaYrmnnu1A2jS4mOJ4/P7JrR+nGPv/AOI2pEARVGXVGTEyZ2QlYj9MSXl3ne5jSfqvOtGLTD16zmsNmtWwgIMX6DuKzHVieimcijSI/wD0x9Quk3XSHLbbrKXXKjhbLkwFyYC5MBcmAuTAXJgLkwFyYC5MBcmAuTAXJgLkwFyYEcy3yg8zS9Jc0jRath/lHtROrV0kbCsT5NqxlUK0SCMCCw8Fw9uREj5xxRoM5GBbh8BwrZUZ4727aGtNQIGl2aC0/qW4Y6fdcpX9KvHPX7K/ixXRnOdGJc5xLnOJqS4mpcTrJJU6pMzM5lgjAg6jyNhmDhsk12kSsqDv4ttV51/3S9in7YbhathAQYv0HcVmOrE9FL5HGkR/wD6hdJuukOV2/WUquVNbLkC5AuQLkC5AuQLkC5AuQLkC5AuQLkGEeO2Xa58YgNaC5zjqAzkoR5qYx/FXYzMPixKgHMxv3WD1W/3PSSopnKbGPJrlgEE+4LMkW4xFM1iwAlJc3G7M2I9vOoa+w0Z3atA2qDW1MRiOq1t9LP1T0aPLvKV2VM6+KK8U2sOA01FGA+sRqc45zvA1LfTpw1wj1tTjt6I6pEIgzgQHTL2sg+s9zWNHS40H7lJnDasZmIdaS8IS7GsZoa1rRuAoF5j2H6ICAgxfoO4rMdWJ6KUyRNHv+AfULpdz0hyu36ylFyqYWi5MBcmAuTAXJgLkwFyYC5MBcmAuTAXJgLkwFyYC5MCFcI2McWxstBOd9HxfhB5resiv6elR3n7JKR91fKNuINnk3gkXKGahy8n6zzznUqGMHrRD0AdpoNa1vaKxmUmnSb2ws7hUxSFk1IwcLwXm3sHGU0iECczj96I+tTro6ulV9Gs2txSua9opXhhTytPPEBBKuDDDPOmLS4Iq2E4x39Ah52nv2DrUetbFJT7eubukVQemICAgxfoO4rMdWJ6KSyVNHu+AfULptx0hymh1lJblUwslyYC5MBcmAuTAXJgLkwFyYC5MBcmAuTAXJgLkwPzmJhssxz4xo1jS5x6AKlGY81OYnOuxGM+LG0vcTTYNDW9QAHUq8zlYxjyeVYBGV68GuCQ8kMOiTuLi2JEh8a8kZ2QgKshgfeOkjTUgalT1bcdsQ9HRpGnTMqZx7FomOzUWYm/WiuLqaQ0aGsHQ1oA6larXhjEKGpebWy8C2aCAguXgIwfi4UebijPEcIMM/lbneQdhcWj+mqu4t54X9rTEcS1lWWxAQEGL9B3FZjqxPRSGTBo93wD6rptx0cnodUhuVbCyXJgLkwFyYC5MBcmAuTAXJgLkwFyYC5MBcmAuTAinCBiXEwWwYZzxTV3wN1dbqd0qLUnywl0o+6v1ClEEv4MMmeUk8PKG1gQLYsbY7PzIR+Ig16GuUWtfhqsbfT4rZnpCY8OOUVohyMsfWtjTFNgP2cM9YuPwt2qLb0/7J91qYjhhT6tKAgIP0gQXTL2slxc97msY0a3OIDQN5ISZw2iMziHUuTmEtwKTgy8GlITA0kZrnaXvp0uJPWvOtbinL1q14Yw2S1bCAgIMX6DuKzHVieijsnDRzvgH1XT6/Ryei31yrLBcgXIFyBcgXIFyBcgXIFyBcgXIFyCrcpZ/zjNRHg1aDYz4W5qjeanrVW85larGIw1a1ZEZdFZG4XDyHwkvxDmvDHTEydd1K2DaWgBoA0kHaqN7cd/J6mnWNOnmoLGcTiYzMxZib9eK8vI001NaDsa0Bo3BXa14Yw829+K2XiWWggILF4Fsn/OM6ZmOPs5Yc3YYrgQ3fa2p6CWqDXviMLe1pmeJeypr4gICAgxfoO4rMdWJ6KLyfNHO+ELqNbo5LSbu5V8Jy5MBcmAuTAXJgLkwFyYC5MBcmAuTAXJgLkwNfj895DLRHtPOttb8TswPVWvUtLziuW+nGbKvVRbEYTbglye894g18YVgytsZ+wvr9kzvAu/pka1DrX4a4/lZ21OK2f4S/hzyg4qFCkpc54lI0b4Gn7Np3vBP9MbVHt6+fEm3V8RwqaVpQEBBnChujODYILnOIa1ozkkmgaBtJKMxGZxDpvIrAG5NSMKAKXgXxnD2ojs7jXWBmA6Ghefe3FbL1tOnBXDerRuICAgIMX6DuKzHVieiicDNHH4Quo1XJaTcXKBMXIFyBcgXIFyBcgXIFyBcgXIFyCJ5dzWaFCGsmI7qzN+ruxQa89IT6EdZRBV04jLong0wZuTWFtfOUY+IDMx3HNaCKgHZawCo23Kjq24rPU0acFFFZT4y7H5yNMRajjHksafZYMzG7w0CvTVXKV4a4edq347ZatbIxAQWXwLZM+XzDpybb9nLm2FX2opHrbmNPa5uxV9e+I4Vza6eZ4pXgqi8ICAgICDF+g7isx1YnoofBzQn4Qup1XI6baXKFKXIFyBcgXIFyBcgXIFyBcgXIFyCA5UzHHzb9jA1g6hU/uSqWrObyu6UYpDUKNukOQOB8ocRgwYgrDB42Ns4tlCQehxtb+taatuGuU2hTiutrhnx3zZh/EQTSJNOLOni20MQ9fNb+sqroVzbP8Lu4vw0/tQiuvMEBB7MHw2LjExDgSQrEiuDW7BrLj0AAk9AKxa0VjMt6Vm1sQ6fwHCYeBS0KXkxzIbQK63HS556S4knevOtabTmXq1rFYxDYLDYQEBAQEGL9B3FZjqxPRQmFGhPwhdVqOR02yuUWEhcmAuTAXJgLkwFyYC5MBcmAuTAXJgLkwMI8cQGOdE0NBcdwzrE+UZlmIzOIQjKWXEOPfBzsjARGnVU6f7H9Spa0YtmPuuaU5rifs1KiSLr4C8G8nlos3FHOjO4uGfyQ9JG95IPwBVNxbM4ehtaYrn+UF4V8a88YpFEM1hy/wBgzZVteMNNt5cP0hTaNcVV9zfN8fwhylVxBvcn8kJ/KGhw2A4sP8532cPeHu9b9NStLala9U1NG9vsuTg5yA5KF8WfeyLMPaGAtBtht0uDSc7iTSpoNA6a1dXV4/KF3R0f0/7TpQpxAQEBAQEGL9B3FZjqxPRQWHGh6guqu5Cj33KPDcuTAXJgLkwFyYC5MBcmAuTAXJgLkwFyYGmyqmuKl7W6Yjg3qGc/QDrUG4nFcfyn28Ztn+Ed4/ymWsf60Fwc0/kdmcOpxb29CrZzTH8LOMWz/LwNaXkBgJJzADOSToAUaSIy6UiubkTg2alZaXAGoOi0oO9Ed/uVD99/7er5Up/Tmtzi8kxCSTUknOSTpJO1X3lTOZbzBslo+JNEWYdDlZY/8TMOEJh/0wc8Q/Dm1VC0tqRHl1lLTRtPnPlCW4bNZOZLUJ43EY49vi+YDtYx5DKVGnnkaiopjUv6J6zo6frKa5GZcTGV0y5sjKtgy0IVixXPLya+pDaAAA46dYAB2hRX04pHnPmm09WdSfKPJPFCnEBAQEBAQEGL9B3FZjqxPRQEiadgXV3cfV67lphuXJgLkwFyYC5MBcmAuTAXJgLkwFyYC5MDVYwWz7YsJv8AiQw2IPrm6s36gq+ri8TX7x5p9LNZi32nyRKC8MPOFQQ4HrBFeqtepUf6Xox90l4NML87YrLNcKthu49+6Hzm9V9g61Hq2xSU23rm6wOHfFuJgQJWGc8V5ixPhZmaD0Fzq/01Bt6+eVndWxXCnpWZMqawmtLtTnND6bmu5tekg9FFamMqNbcPRjMzD5t5fNvdEedL3uc9x3uOdZiIjoTaZ6v1wvDouLR4cCQbdEiODWj6knUAASTqAKxaYiMyzSs2nEOmslcAhZNSjJeUz050R9KF7zS5530zbAANS8+9ptOZepSkUjENutW4gICAgICAgxfoO4rMdWJ6OfpU07Auss4+r0XLRsXIFyBcgXIFyBcgXIFyBcgXIIhFnnQJt0Rup7gRtaM1OwLzpvMak29XoxSJ04r6PJOQxDiOEP1a1b8Jzt/YhR2iImcN6zmPNavAJhtXTUy8aBDgMO/nxB+0JVNxPSF/aV8plEOFLFfOuLRy01bBpLs/p1uH/MMRSaNcUQ7i2bompVcObSjK+eCbI3zFB8pxFtJmO0UaRQwoZzhlNTjmJ2UA1GtLW1OKcR0ejt9LgjM9ZWEoVgQEBAQEBAQEGL9B3FZjqxPRz3ANOwLrJcdD9blhsXIFyBcgXIFyBcgXIFyBcgXIIrjcvxEYluh/OG86R2/VebuKcN/7ejoX4qf08LnXUrqFPr/91KFKvrg8Dcm8n/KIw9iYmnjbps6yxrFR1Pq1MPT0o4NPKhYkR0ZxdGNXOJc47Sc5ParrzZnM5YowszgjyJOJRGzmKN+whkGAwj/EeND+ljdW07iDX1tTH0wubfR/7Su9VF4QEBAQEBAQEBBi/QdxWY6sT0c8sNANwXWy42GVywyXIFyBcgXIFyBcgXIFyBcgXINVlDDvhtd9006j/wCwFU3dfpiVraW+qYR+hdmYKk6BtOoKgvx1XpwpRRgOBQpWDmu8mlhT7sMXE7qQ6fqVPR+q+Xo688OnhS+EYXHxmM2DhkMxIjtDRqGtzjoa0bSrdrRWMyoUpN5xC78jeC6VwYNiYxbMzGY0IrCYfysPrH8ztgoAqd9abeUeS/pbetPOfOVgDNoUKwICAgICAgICAgIMX6DuKzHViejnlmgbgutlxr6jIgICAgICAgICAg82Iw+NgvH5SezOPooteudOUuhONSGtyNk/L8SlIeox4JI/K0h7v9rSvG1JxWXsaMZvCxOGNkXHMQkpHDgXRLHvt0CsQ0ucdQa2E4k6gSoNDFazaVrcRNrRWE9yMyTgZKS/Fy1HRXUMaMRRz3f2YM9G6t5JMN7zecp9PTikYhIVokEBAQEBAQEBAQEBBi/QdxWY6sT0c8s0DcF1suNfUZEBAQEBAQEBAQEHwiulYxkiceb9OCGS43GYd38lsw890w/q9eBr+VcOh2sZvlcWC4QDPTc7MZ3xHCBBr7EKEA1wHxRQ87g1VJt9MVXq1+qbJEtG4gICAgICAgICAgICDF+g7isx1Yno55ZoG4LrZca+oyICAgICAgICAgICDf8AAvLh2KTcQexCc3vxGn/oK5/e/umPWXQ7CPpz6QucCmhUXovqAgICAgICAgICAgICD44VBokEueAKaV1zjH1GRAQEBAQEBAQEBAQS7gRZWZxF2wy47TG/8Bc9vf3/AO5dHsP2f6j/AMWyqS+ICAgICAgICAgICAgICCm8usDdhE05zR9lGc58N2oE53M6CDWnQR0rotlrxq6cR946/Lmt/t50tSZ+0+f/AMRxXFIQEBAQEBAQEBAQEE14E2WvxE7Ykv8A90/3XPb7/kn+5dH/AI//AI/wtJUl8QEBAQEBAQEBAQEBAQEHnn5GFiMMw51gex2lp+oOkHpC3pqWpbirOJaamnXUrw2jMILiHBmHOJw6Pa37kRt1P1gjN1L09P8Ayk4+uv4eVqf4mM/RbH9vF6NJj8eF2PUnilO2UXhN+6PwejSY/Hhdj08Up2yeE37o/B6NJj8eF2PTxSnbJ4Tfuj8Ho0mPx4XY9PFKdsnhN+6PwejSY/Hhdj08Up2yeE37o/B6NJj8eF2PTxSnbJ4Tfuj8Ho0mPx4XY9PFKdsnhN+6PwejSY/Hhdj08Up2yeE37o/B6NJj8eF2PTxSnbJ4Tfuj8Ho0mPx4XY9PFKdsnhN+6PwejSY/Hhdj08Up2yeE37o/D18GOHuweexSXjEOdDdIkkVob2Pdmr0ELz91qRqTF4++XpbTSnSiaT54wsRVVsQEBAQEBAQEBAQEBAQEBAQEBAQEBAQEBAQEBBEcNAlsfnG648nJxt9jokKv0Uk/shHHleUuUaQQEBAQEBAQEBAQEBAQEBAQEBAQEBAQEBAQEBBFMZ/gsakItM0eDNyjnbCA2NDB32PUkedJhpPlaErUbcQEBAQEBAQEBAQEBAQEBAQEBAQEBAQEBAQEBBqcosH88Mg8W/i4kCYl5iG+hdQsdzgRUVDmF7dPtLatsNbRltlq2EBAQEBAQEBAQEBAQEBAQEBAQEBAQEBAQEBAQEBAQEBAQEBAQEBAQEBB/9k=;" vertex="1" parent="1">
                    <mxGeometry x="640" y="555" width="100.83" height="100.83" as="geometry"/>
                </mxCell>
                <mxCell id="65" value="&lt;b&gt;SQLite Database&lt;/b&gt;" style="text;strokeColor=none;align=center;fillColor=none;html=1;verticalAlign=middle;whiteSpace=wrap;rounded=0;labelBackgroundColor=none;fontSize=16;fontColor=#FFF736;" vertex="1" parent="1">
                    <mxGeometry x="650" y="570" width="60" height="30" as="geometry"/>
                </mxCell>
                <mxCell id="69" value="" style="shape=image;verticalLabelPosition=bottom;labelBackgroundColor=default;verticalAlign=top;aspect=fixed;imageAspect=0;image=https://www.honeycomb.io/wp-content/uploads/2023/03/integration_aws-elb_featured_image.svg;clipPath=inset(24.49% 33.33% 24.49% 33.33%);" vertex="1" parent="1">
                    <mxGeometry x="425" y="340" width="80" height="80" as="geometry"/>
                </mxCell>
                <mxCell id="70" value="&lt;b&gt;&lt;font color=&quot;#ffffff&quot;&gt;Load Balancer&lt;/font&gt;&lt;/b&gt;" style="text;strokeColor=none;align=center;fillColor=none;html=1;verticalAlign=middle;whiteSpace=wrap;rounded=0;labelBackgroundColor=none;fontSize=16;fontColor=#000000;" vertex="1" parent="1">
                    <mxGeometry x="505" y="365" width="65" height="30" as="geometry"/>
                </mxCell>
                <mxCell id="71" value="" style="shape=image;verticalLabelPosition=bottom;labelBackgroundColor=default;verticalAlign=top;aspect=fixed;imageAspect=0;image=https://cdn-icons-png.flaticon.com/512/4400/4400270.png;" vertex="1" parent="1">
                    <mxGeometry x="260" y="342" width="76" height="76" as="geometry"/>
                </mxCell>
                <mxCell id="72" value="" style="shape=image;verticalLabelPosition=bottom;labelBackgroundColor=default;verticalAlign=top;aspect=fixed;imageAspect=0;image=https://cdn-icons-png.flaticon.com/512/3518/3518559.png;" vertex="1" parent="1">
                    <mxGeometry x="49" y="330" width="122" height="122" as="geometry"/>
                </mxCell>
                <mxCell id="73" value="&lt;b&gt;USER&lt;br&gt;&lt;br&gt;&amp;nbsp;BROWSER&lt;/b&gt;" style="text;strokeColor=none;align=center;fillColor=none;html=1;verticalAlign=middle;whiteSpace=wrap;rounded=0;labelBackgroundColor=none;fontSize=16;fontColor=#000000;" vertex="1" parent="1">
                    <mxGeometry x="80" y="370" width="60" height="30" as="geometry"/>
                </mxCell>
                <mxCell id="77" value="" style="shape=image;verticalLabelPosition=bottom;labelBackgroundColor=default;verticalAlign=top;aspect=fixed;imageAspect=0;image=https://static-00.iconduck.com/assets.00/aws-icon-2048x2048-274bm1xi.png;" vertex="1" parent="1">
                    <mxGeometry x="415.41" y="655.83" width="99.17" height="99.17" as="geometry"/>
                </mxCell>
                <mxCell id="78" value="&lt;b&gt;Data Storage&lt;/b&gt;" style="text;strokeColor=none;align=center;fillColor=none;html=1;verticalAlign=middle;whiteSpace=wrap;rounded=0;labelBackgroundColor=none;fontSize=16;fontColor=#000000;" vertex="1" parent="1">
                    <mxGeometry x="435" y="660" width="60" height="30" as="geometry"/>
                </mxCell>
                <mxCell id="80" value="" style="shape=image;verticalLabelPosition=bottom;labelBackgroundColor=default;verticalAlign=top;aspect=fixed;imageAspect=0;image=data:image/png,iVBORw0KGgoAAAANSUhEUgAAAOEAAADhCAMAAAAJbSJIAAABUFBMVEX///8AAAAmpv7/0Vtu1aH/w0QFk/xGzI0nqf8nqv8mpv/X19f/1l0orf//yEY3NzcMNVEwMDDv7+/39/dI0pHIyMgFl/+lpaXa2toGHCw+Pj6enp5x2qW4uLgaca309PTm5uYoKCiGhoYWFhZKSkpgYGDOzs6/v78dHR0hkd4doP2YdCn/ylC/kjMdfb8fidK/nEQodFBTU1N7e3sFFiKurq5c0ZgQEBCZfTdnTxvToTgRS3Mjmepetoo0ZUyMjIw4o3E3oW8UOynlrj1ra2sOKRwbUDfQq0oYZ54UVoQ/elwviV9jwJEoTjshYEJLkG0/t3+rgy4JKT4PQWQEbbsFh+gDRHURIBhXqH8UEQesjT3lvFIzKhISUHoJJzsEdcgDW5sDTYT/7cJ2YCj/5aj/+Oj/4Ie22/6Vyv4BNlwDZa3j+O0AEgqA2qzA7NUiOi0K3UuoAAAVRUlEQVR4nN1d+18TybJPhjxmEhIhCQkQAoHIU0wQEFSiuK4PkHVFEF04Inoe997dvef6//92Z6bfr8n0PDlbn89+PmvIdOo7VV1VXV1dnckkR+XW8uR+dn9yuVVO8FcTo4X2ZJbQZHshbYaipodrWZbWHqbNUqRUX86KtFxPm63oqLYoAZjNLtbSZiwqqk1KAdqz8a8C8S7B9OPZ22c/yD/vps1aNLSE8Hx+n5tzKPf+M/poKW3moqAuQvM2N5cDNJd7iz7sps1eBITM6HuEz8X4HhnUtNkLT9MygLnc3gn8fDptBkPTIQDyjgWY22u8Bn84TJvB0AQN6VMB4entMKcL5anVqaly8OijJhdhrlhsvAB/Cu4T6+WpqVDMZVaWcCyyuLQSbIyydBa6COFMDLjOoJk7DMbc6j4bgPQCLQcegod/45XURvgc/ClIBL7Q7vHM6UtyOivQfgBmWvJpWLQJTsSW/qAP90XmetrMLYmDZLPb2pNGjtAWYbERFGFtW8aazZymjr2UD6M7azpSLXVE2PgJ/KmjOWJZzpg+cx3FKFN6/EBlZy1N0UUILY2my59SA9Rj7u/j/3Aeefxo682brUePqVH07Bb0Fj/meIABvcUKxYmEOf9S/Ofm2Pibq62xcUhjV5d4FD2WBI+/BwFCU6rn8WuYi8srKXN+5+I/q2NjzgBjmMbHH6FBZrV4aoOHXrACtAmKsK012ixi4pGCuW1/4/x9c0yk8SfoTWnZZbR4ejtH5OeI8AH8vKszWAsJ8M04z1xWh7l/SfDZVP0ZDtLTMsvIKJ80ioSQmcm+1BlqAfnBv42rmRvt+rv1/1IgrKIXpaVZeOr8WkQYG8VfA01qqPFZXoI25X0z5ziJf8gR5vPVe2CQRa0QCfGVzT44LTYajeLpA/yJ1ruqL6I56MVcz3uQaeUQziD5/Bcwip5TpJKlr16/fv2K/FNvhQ9d4RcFc1VoJ7zd2ZJ6DHeQD2AQvQRS/U5WTnf0wmUYSF7J3j/FnPeaGuTeL1UI83moplqcMflEinQXv1BJZbxt+mVuAXznsewtuYNUYQChyVtmRwJwR3cQv8x5aQaMaqXz0H1LSBO080dTfN57UjPAxSGuSkmJrfEK3eBc3pIMAvSgeh98Y1WXPdtKz1L4ZnVXFDat+mXO693BQST+Brwl7HUCMGh72g5Ymfc63SCPd/wy54VwSjnIZgQIMxlgVO8Ee1iNcFMboUQR8vmwWupQKIRqLeWY80KotDR5NEhQSwMoFMKyytJg5nxYmjr4imCQ83iQgN4CUiiEvpnzjCMWwXdUYwT1+IhCIYyGOVlgtEmGQJoedNsvHMIdyUSkmfMVUsI0yOW4bIigkTehcAjFyJthzl/knemxtobFF2z1RFE4hNzqaVPO3IjVE17MPalWq3mOgq2AaQqHkGaO580/cyhRcPmzCBAlCvYD1zOFRIizGDLmLv0yB7dSnBeleElBdhrqte5Kp9UGi7O1dquzUqsFUPXWaOZ8ZKLwrsC9PDVMNX8Pfa6XTczUpzs7y7I18J3lpdVpTZizo5jzk01cwCx8+ZCvQsrf/4I/3tcIaFZa23xBG0uL2zqFitNk04lm7gNhzldmi976ePzh/pMn9z/QifOs79z5qmzdK6Mdn96H25SRMOeTM8/ND78DrfiFB0H62A7x2HWC5NtPr4wcagTEWluVfFLTbGuEFRwNUGPTqDYrH2IWzwOvudjVEx+hHa9ZhDel91XM6W0ZPeyJQ+y3qL1vpRS7kr3V3bODo/5gfWiYlUrFMIaDfv/o/GxXgrGrGpZIcDrTimSXe6G9yA6x6FYqkB+SQxTxTRz3142KZZmmaRglw/3P/n/Lhrrevz4TMMolwf6ugjldqk/R1SZTdf6nZIp6yPF73R8algNNSqZZMYbzB9wzsrBL0B2WuZUQNTXTq53OKoPFQ4qrrGof9EuW6YrNiyzL6J8zz60JJlHxmyJz0ZBqLtYYBT2bH1ZUshNkWRkefaUffsmqqrfexEDyN9qhp//EwLB8woOSNPoT1PO9zsjfSwgieac7DD7THKWcoiDNAY2R5Px92O/oSfjR7iKlnwPf6slQyawMKNO62AVDJ66i/M+6EFcJYzPzViB8UI7zlJNclfxSShDJLm/22rC09ZOWo2Vck8HaKamoAJGUwO0O9OyLjKwBEeNOahJ0SFK8eG0EV1BCJi3GVOYgIiHWn69EgM+hyjw/dErH+ViIu+vhNRSRtb57GwCyijoRiYYiMo2J2wCQluJBlPhcjAe3ASApJD6OGqAN8RgNrl3SEB1hP3gc3RQkZB2h4QPn2MMSjmSOozKiLFWwFANuqoelbqwSdMjCELupIFyMy8hQEJG5WUsDIFouTcQH0DY3yGlo1aFGQ6iWfzdGfA7NpKWnNbSiX49ThLYQ19NyiignMx+XlUFkwRg16R4MyFFcx+MnaAI+I3F/0UtmEgKI/U/fL5Luv4ASv4N4JyEks9ksmMkCRL7+Ou5JCGmjUCj8d6IIoZmZSQafTc1CYSNJgEiE/YRECIT4PwkihCI8C5VV06KSjbCQnLHpJmpmADUTFSIMSCfid4WEHDUtdMvdRACic0wxh2ss2Wra/JZNaLnfTmBJIVKz8NH92QD1WNp0J/lZaNNG83f3ZyfjBwgrUc5G7u3Gg1DzGHIQ2kloTcFRqfkH+OH4ZyK0M8NkAToTEf5y3ADhsukgSVfh0kbzE/jpgEc9fBNU0r7CzpimqawtGUXS5/BoG4Ub8NNxZ2ygqsjMjFWpOMVO/YFRsYRtfNNCZMoLUCrD/rAiPGX0+xC57RETUdMV1bLJtIx5XBWzezwwLY7TeUz9YUnyBpyVPJ94NQcktCgVkJqGsqa18sNWqzOtLoFrK5TUWucqm2bmqXITwCmh3esBp8smyMYccdMbpLvA62g2gc/3yPHXyp1W62FZyf70IT7MerfdlX9nW2pJTeM4K9BMH7FbMsQavYkBo5ImlD8TCqIXA4KLZuEC/FNR6NxtE/YPZVvGXa495UvZm6iDkuYJdibx+5mIkM/kRQjoiFZJlPk9Y15cH3wINMYOvsGX1mTLqBpXMbgsiEjScEeiDXBLlJ0vVl+KL4tFLUeYPafkhXPb9NA8wuZ38G+JgNri8OzhoJr0sLXYYLRD/+RIgCh2VSDMHlgiQjreFRDCiShkFqXtUbN3KS1Utd8Ujn5Ab0jPFotif+Z4vj/oH2Gb6i1DWlEJQipBKWgpnIhC4KYouSbNQ9F5Islr4IZa5pkwjCH+8oTtIpw6WcsywN7mNTcPj9YdGhCvQl4VQUiFS+g5jLAA5jvfiUF+2j9LndMjMn73/renT397TzqMsq+rDmR9Rtl0C7PbrxAnZxnHM1+P0L8Rp/OWG/JYlSHCcy5BSBJcLEJnEQzK3rhWDKRm8Adg/x3+AL4LfA7o3dM5SE9foM+YYla4vKfnD5qEu0PWW1t2DFDiOJ3HeHAZAhIijXB3aLLPEYTQ5zNmHp+deEHYxxjd4u8FdKjl/RzudEQajDIrTpiDItOnhDjbH3pEowJC+yNYhIhMJ40we85pN0H4DXzQpZlCNoS0R83N4eaha86GDjK0bDuuOdQihzZcK/QvujygvS/PejaipYbwoAwh+iL7ZhyE0JjScRvax1Sw3ybv4C3XFa8Bm+TQ57igPhODjjbavbegJAiNyjkzFoswCzRCQIiWF/TBA3j44hnPPuyBM4mLfj7nOCoWs4JKwMNxxFlYcJ/Uez0sQ4gmMNR4iBBtu064RgoJmiCE7oJKR6Hkrcg+7FU8jbgWm1Oit0CpaZvHA13Fufd6WIaQexQi/IpKaFzgLMINgpCKtqCS8hqYw52oWshV8O9gD3duXJvFBG2SIIgRSRsZwpIBbM0Mg3Cmgkr2HT0RERZULP0isg91cBlOwx9if9FikWp3xBD2e2gHekRyWCpDWEgCoweMEIU/Z7QMLQ6hQK9EJS02APuTGaD6/ER1v/JaMR7WSVSX5YlPhRCUye4PWYQVrKcVwxzyCJsKjiQtbovQVO7DtASvx0V/CI9DIITPcghLFVSub1vZwAj3qJ53chnu+UQYRoZyhFhw2RlOhk0NhEVahtJ5CBrHxTsP5VpKBs0eVwSEPuchaHuH5qHMlgKA0JbuT2LqcSILYUtRyL4LXheFEEeC2YFBPedukkKEPcIS9KC/iOxDW/pS5g/Z3o0x+UNYzvWV8xbO/+MFGS1DF6Evf8h2ZmyJMQ3uTwl/JqaYBnJ/wMQ0wDvirME59ZzrLG4Q1+qYBrOPYxouLsVfkMWl8IVFEZciIzXPxKXQ/1fY84hHPEJ6NcDGpYR9EpeStcXeHmkvStpvBl1bOOt9NcISJ30WocGmH12Erin1WlvI2XcUGq8PTxq4w2ijiNpTBl0fWoPj4z40uhKE6MwIgsQhZLNbzu+50xCtD5kVMFofPigS9jFAkHnEa/zXp07vTfu/xnPfa3wUZXFrfBCaHLG5NoIQyx6nVDkZWnSK2UHoKumINf7zBuT/FHtyuM4ieZoXJ89PT386wfj4PA1Iao3M05go9hpKEZasIaqLxZA5hIyeEoQj8jQvTn46PX1OsY9yVqFybQb+Msm1rSOPBmYsjqArbiLKwskdou8CQixl+C3X3+vm2sgUC5MvpZOhMF9K1uvrDMJjZ++tP3+MBEjl8EUZktMWTjIH+HvoDoVWVyPzpbHlvM/B/gYtD4bImxIRGgY+MWsjBEoaPOediWff4qtE42iiKv8kCMlT9s+5Shpm3yITx94TPs2mQEiXNspkSJaKFlDScHtPmcj3D4/FuICmGSZIgPuHZ0xsVIETum9u0NPQz/6hgn24iRpsD5g72XpOn7e0hP4e2SO2MAEumdjYHMauE0hJ4TRUF37Vph321XvAfshjH39Idly+Hg2ZI+vmkFXjiXm+40LJ3cc/4Lb3zaE95LEBRYj8fcwnLyCPPEBXDqAWY+D0auFkbJquo3AKNQaDdasiridLlfX+ulCLYVQqFewMEyoZClhPUzIpUj4q/4MBRQiVNO6yrzRqopqMksZdE5VCXRsQIbKksde1pVCbCEWYWG1i4vWlUIQF6HHiry9NvEYYihAmMAL3zdSghOu8oQhRiXASx7pRrX4yQoQRKcpBhbhpT4MSPW/RZEWYTPOBJM/MbHAi7CaCEJ970u92pUtIR2GCJrET3UiI8ftEpKN/JCtCPBNjPyOLdBRmoBJsAZLQGVIEEEWkyRhSQImcA8aTEJmZRC/WTeAsNwKIdXRUs/VoCZ3Hj3EV1eR1NPZlE0ux91TAAJEdTbr3Rw21Ko3poCUGiJaFvQTNDKB4e5s0+UmYRpuhOPvTEIAwHk2nG9YisjZRQyxhgNjKBL32JRzF1SeKAvgd/UQ3FYQx9frCoRoFMGFHQSiOfm0ygKn1a4uh5x7RUApg0JuJoiC6b2IUGIkAC4VPeOwU+yZG3PuSFmDhVvS+jLh/KSXA5sWt6F8abQ/ajSYF8A9+6FQgSvoIHwTW1BKNj5qCmFLoIxxlL2hafvaCl2joUoq9oD36eYfDV/hOBkuzn7e6J/vufElHVUsMvkLz4y3pye7dV//Gbx6Vg2crKOUjFrv8y0xwLo66G+H3m+bGxgiYpQ0eXvPmd2qMVO9GUNxv0WMw2hzbKKUwSwI6Z/4x+PZTvd/C3x0lX79duGW9Nk6HSiUHl0NNHpzzpYs/mJKbJO8oca9yKdN1Vv7vmfn0sSCBI8IrfGQdYM/nPTP1csh7ZpjreHaC3RX06eOFF0r7Txcfef8uS/xK7graIczhi4y0KOB9TzXhvq4JgLLJ2xUX3fcJ/uuJ3fckuxYrzJ1dn759vLm5cJEVChc3Nx+/fZLd2fWyqxo24ju70rp3TYkvE/G9a+Hvzmvp3513pz2CwwjvzvvL33/I3GF5tfXmzdZV3HdY+syl8XdYisz54qyGv/7lamwc0tgWuepTx+2WR91DurbdDngP6RZh7krvHlJ8l+yjMeoC7PGxR+hz/btkl1R3yXYC3yWrYs7HXbL4jNAb7pb28XD3AdcivQ9YzdxIp4HvdP4bfw392C2601nGnN87nduKl+RcRH9r7uUOxRx3tzozyC27W13B3IjtfujrLyVjjDn3Q0Oj5fveXY7CIYR++ouEN4e5KtRTb88K02ZXCoTV++DvQXcSwiGE7nVLxdwHP8xBPZC9JVeGeaimAXkMh9CDuU2/zNXBdx7L3pI7SBUGEAF5DIXQN3NeVqKsnspAhEgTAi6sQyEse88gYmu8gqQptaYDPUATMeCmbCiEq36Z87KDEKHE34C3hL1OwNqPUAg7fpkLhnAzAoRdmHDsdbrRItzURihRhHw+rJau0NH3bIBXpNZSjjkvhEpLk0eDBLY0/PJ1UjtqmFZZGsycD0ujMsh5PEhgbyEeRtYuc/LLnGdMuQi+oxojhMeXrBD50/6jKBLmDiWasEmG8BcYSUmW0bijF8HLQkoJc96lxGLkTQ1BIm/941V//vt/nQdfvXv3jmrOxHdH8CYx8maY8xd5c6unTRZf8NXTn047zWdvf8nNzc3lfnmLIWqtNLnVk4K5UcXSaJH5pJoXKPgK+E+nO84c7h46l3uGIGrVxfpiblSOpY62j34WRsFZjJ52FuPfOY5wg1Gt2uYFP8yN1C+cieJfVPUJ1PPRyR6e/m+PR5jbQy1+ujoDIeYuReay/pnD2cR7eWqYKlJz7WxiRiJCp6HTiyAaj7OJ96py5nxkEzML2AxcfrCfBZT/cIk/1i4pl4gwt9d4DkbTc4q1Ucz5mkBMVv/e/SdP7t+jE+eanqK+NPlDaI7qNFVrvAjywla8mfOZP/fcmdENJ12lFxqo5kg7Ls0QNxrmPDZ5dKshIEPiNCw2fgJ/0l1lRMPcwrZ8iG3tOQjz8E8FERYbsC+j9h5BTcWcnhN72BOH2Nd2EwShpHtoUIQ2c+F3uW2qtziMPf1igAz2YL+J3UORMQ3w2jILInOB0vArh7gH2OJSwF4GcNaw1pRp/BewzmlliTB3GKLRQr08ZVM5+OWK0IExTWJh679A3iJS5qKhu8JEhADhNNRdBt8+OuSEiBpUoi7FiR59jYVQGYw7E0n/Tdydsps2g+EJpaBOcPNNGqDeKv92Ej7iRhqMkvao2W7a7EVBuJT/84nbHLVRPPmMPkrzSFOERLWdfPXrg1+pTNR/viEFpGoeyrTf/M8mBcS/DsCMLKf/1zCjFD3ky9vWgkTct5oW2vTOxWSwtcBtp+nW8uR+dn9yuZXkSbT/B4n9zCo/80d+AAAAAElFTkSuQmCC;" vertex="1" parent="1">
                    <mxGeometry x="57.5" y="690" width="105" height="105" as="geometry"/>
                </mxCell>
                <mxCell id="81" value="&lt;b&gt;&lt;font color=&quot;#ffffff&quot;&gt;Caching&lt;/font&gt;&lt;/b&gt;" style="text;strokeColor=none;align=center;fillColor=none;html=1;verticalAlign=middle;whiteSpace=wrap;rounded=0;labelBackgroundColor=none;fontSize=16;fontColor=#000000;" vertex="1" parent="1">
                    <mxGeometry x="77.5" y="795" width="65" height="30" as="geometry"/>
                </mxCell>
                <mxCell id="82" value="&lt;font color=&quot;#000000&quot;&gt;https://www.PAO.org/api&lt;/font&gt;" style="text;strokeColor=none;align=center;fillColor=none;html=1;verticalAlign=middle;whiteSpace=wrap;rounded=0;labelBackgroundColor=none;fontSize=16;fontColor=#FFFFFF;" vertex="1" parent="1">
                    <mxGeometry x="170.11" y="-160" width="160" height="30" as="geometry"/>
                </mxCell>
                <mxCell id="83" value="/pet_id" style="text;strokeColor=none;align=center;fillColor=none;html=1;verticalAlign=middle;whiteSpace=wrap;rounded=0;labelBackgroundColor=none;fontSize=16;fontColor=#000000;" vertex="1" parent="1">
                    <mxGeometry x="330.10999999999996" y="-160" width="60" height="30" as="geometry"/>
                </mxCell>
                <mxCell id="84" value="/available&lt;br&gt;/name&lt;br&gt;/age&lt;br&gt;/species/breed&lt;br&gt;" style="text;strokeColor=none;align=left;fillColor=none;html=1;verticalAlign=middle;whiteSpace=wrap;rounded=0;labelBackgroundColor=none;fontSize=16;fontColor=#000000;" vertex="1" parent="1">
                    <mxGeometry x="383.21999999999997" y="-130" width="60" height="30" as="geometry"/>
                </mxCell>
                <mxCell id="85" value="" style="edgeStyle=none;orthogonalLoop=1;jettySize=auto;html=1;strokeWidth=2;fontSize=16;endArrow=none;endFill=0;strokeColor=#000000;entryX=0.149;entryY=0.919;entryDx=0;entryDy=0;entryPerimeter=0;" edge="1" parent="1">
                    <mxGeometry width="80" relative="1" as="geometry">
                        <mxPoint x="150.63" y="90" as="sourcePoint"/>
                        <mxPoint x="150" y="233.81500000000005" as="targetPoint"/>
                        <Array as="points"/>
                    </mxGeometry>
                </mxCell>
                <mxCell id="86" value="/user_id" style="text;strokeColor=none;align=center;fillColor=none;html=1;verticalAlign=middle;whiteSpace=wrap;rounded=0;labelBackgroundColor=none;fontSize=16;fontColor=#000000;" vertex="1" parent="1">
                    <mxGeometry x="330.22" y="-60" width="59.89" height="30" as="geometry"/>
                </mxCell>
                <mxCell id="87" value="/application_status&lt;br&gt;/name&lt;br&gt;/adopted_pets&lt;br&gt;/occupation&lt;br&gt;/favorites&lt;br&gt;/appointments" style="text;strokeColor=none;align=left;fillColor=none;html=1;verticalAlign=middle;whiteSpace=wrap;rounded=0;labelBackgroundColor=none;fontSize=16;fontColor=#000000;" vertex="1" parent="1">
                    <mxGeometry x="390.10999999999996" y="-10" width="60" height="30" as="geometry"/>
                </mxCell>
                <mxCell id="88" value="/date&lt;br&gt;/time&lt;br&gt;/participants" style="text;strokeColor=none;align=left;fillColor=none;html=1;verticalAlign=middle;whiteSpace=wrap;rounded=0;labelBackgroundColor=none;fontSize=16;fontColor=#000000;" vertex="1" parent="1">
                    <mxGeometry x="489.10999999999996" y="60" width="60" height="30" as="geometry"/>
                </mxCell>
                <mxCell id="90" value="/employee_id" style="text;strokeColor=none;align=center;fillColor=none;html=1;verticalAlign=middle;whiteSpace=wrap;rounded=0;labelBackgroundColor=none;fontSize=16;fontColor=#000000;" vertex="1" parent="1">
                    <mxGeometry x="346.40999999999997" y="100" width="60" height="30" as="geometry"/>
                </mxCell>
                <mxCell id="91" value="/name&lt;br&gt;/appointments&lt;br&gt;/rank" style="text;strokeColor=none;align=left;fillColor=none;html=1;verticalAlign=middle;whiteSpace=wrap;rounded=0;labelBackgroundColor=none;fontSize=16;fontColor=#000000;" vertex="1" parent="1">
                    <mxGeometry x="426" y="-30" width="60" height="330" as="geometry"/>
                </mxCell>
                <mxCell id="92" value="" style="edgeStyle=none;orthogonalLoop=1;jettySize=auto;html=1;strokeWidth=2;fontSize=16;endArrow=none;endFill=0;strokeColor=#000000;entryX=0.149;entryY=0.919;entryDx=0;entryDy=0;entryPerimeter=0;" edge="1" parent="1">
                    <mxGeometry width="80" relative="1" as="geometry">
                        <mxPoint x="150.6300000000001" y="-30" as="sourcePoint"/>
                        <mxPoint x="150" y="113.81500000000005" as="targetPoint"/>
                        <Array as="points"/>
                    </mxGeometry>
                </mxCell>
                <mxCell id="93" value="/admin_key" style="text;strokeColor=none;align=center;fillColor=none;html=1;verticalAlign=middle;whiteSpace=wrap;rounded=0;labelBackgroundColor=none;fontSize=16;fontColor=#000000;" vertex="1" parent="1">
                    <mxGeometry x="346.40999999999997" y="170" width="60" height="30" as="geometry"/>
                </mxCell>
                <mxCell id="94" value="/error reports/id/status&lt;br&gt;/forms/form_status" style="text;strokeColor=none;align=left;fillColor=none;html=1;verticalAlign=middle;whiteSpace=wrap;rounded=0;labelBackgroundColor=none;fontSize=16;fontColor=#000000;" vertex="1" parent="1">
                    <mxGeometry x="415.41" y="30" width="174.59" height="330" as="geometry"/>
                </mxCell>
            </root>
        </mxGraphModel>
    </diagram>
</mxfile>